<svg width="13" height="13" viewBox="0 0 13 13" fill="none" xmlns="http://www.w3.org/2000/svg">
<path fill-rule="evenodd" clip-rule="evenodd" d="M0.342549 6.6665C0.342549 6.29831 0.641026 5.99984 1.00922 5.99984L5.9994 5.99984L5.9994 1.00965C5.9994 0.64146 6.29788 0.342983 6.66607 0.342983C7.03426 0.342983 7.33274 0.64146 7.33274 1.00965L7.33274 5.99984H12.3229C12.6911 5.99984 12.9896 6.29831 12.9896 6.6665C12.9896 7.03469 12.6911 7.33317 12.3229 7.33317H7.33274L7.33274 12.3234C7.33274 12.6915 7.03426 12.99 6.66607 12.99C6.29788 12.99 5.9994 12.6915 5.9994 12.3234V7.33317L1.00922 7.33317C0.641026 7.33317 0.342549 7.03469 0.342549 6.6665Z" fill="#FCFCFD"/>
</svg>
