<svg width="26" height="28" viewBox="0 0 26 28" fill="none" xmlns="http://www.w3.org/2000/svg">
<path d="M21.8923 5.97927L15.5 2.28868C13.953 1.39551 12.047 1.39551 10.5 2.28868L4.1077 5.97927C2.56069 6.87244 1.6077 8.52307 1.6077 10.3094V17.6906C1.6077 19.4769 2.56069 21.1276 4.1077 22.0207L10.5 25.7113C12.047 26.6045 13.953 26.6045 15.5 25.7113L21.8923 22.0207C23.4393 21.1276 24.3923 19.4769 24.3923 17.6906V10.3094C24.3923 8.52307 23.4393 6.87244 21.8923 5.97927Z" fill="#45B36B" stroke="#141416" stroke-width="2"/>
<path d="M12.1029 9.56319C12.2075 9.38022 12.0527 9.15792 11.8448 9.19256L10.8731 9.35451C10.7245 9.37927 10.6314 9.52873 10.6747 9.67295L10.9774 10.6818C11.0405 10.8923 11.3249 10.9248 11.4339 10.734L12.1029 9.56319Z" fill="#141416"/>
<path d="M9.81615 10.296C9.76041 10.1102 9.52439 10.0567 9.3978 10.2037C9.00524 10.6594 8.63448 11.1383 8.25053 11.599C8.22917 11.6246 8.20878 11.6508 8.18938 11.6775C8.08526 11.8206 8.20355 12.0002 8.38056 12.0002H9.99141C10.1589 12.0002 10.279 11.8388 10.2309 11.6784L9.81615 10.296Z" fill="#141416"/>
<path d="M8.30721 13C8.13905 13 8.01965 13.1639 8.10385 13.3095C8.13087 13.3562 8.16063 13.4018 8.19312 13.4461L11.7897 18.3506C11.8499 18.4326 11.9163 18.5064 11.9876 18.5719C12.143 18.7145 12.3376 18.5502 12.2755 18.3487L10.6816 13.1764C10.6493 13.0715 10.5524 13 10.4427 13H8.30721Z" fill="#141416"/>
<path d="M13.7228 18.3488C13.6607 18.5503 13.8553 18.7147 14.0106 18.5721C14.0821 18.5065 14.1485 18.4327 14.2087 18.3506L17.8053 13.4461C17.8378 13.4018 17.8676 13.3562 17.8946 13.3095C17.9788 13.1639 17.8594 13 17.6912 13H15.5557C15.4459 13 15.349 13.0715 15.3167 13.1764L13.7228 18.3488Z" fill="#141416"/>
<path d="M17.6189 11.9998C17.7959 11.9998 17.9142 11.8202 17.8101 11.6771C17.7907 11.6504 17.7703 11.6242 17.7489 11.5986C17.365 11.1378 16.9942 10.659 16.6016 10.2032C16.475 10.0562 16.239 10.1097 16.1833 10.2955L15.7685 11.678C15.7204 11.8384 15.8405 11.9998 16.008 11.9998H17.6189Z" fill="#141416"/>
<path d="M15.1287 9.35453C15.2772 9.37928 15.3703 9.52874 15.3271 9.67296L15.0244 10.6819C14.9613 10.8924 14.6769 10.9249 14.5679 10.7341L13.8988 9.5632C13.7942 9.38022 13.9491 9.15792 14.1569 9.19256L15.1287 9.35453Z" fill="#141416"/>
<path d="M13.0009 10.0078L13.9256 11.626C14.0209 11.7927 13.9005 12 13.7086 12H12.2933C12.1014 12 11.981 11.7927 12.0763 11.626L13.0009 10.0078Z" fill="#141416"/>
<path d="M13.2393 16.5232C13.1669 16.7586 12.8338 16.7586 12.7614 16.5232L11.7769 13.3235C11.7274 13.1628 11.8476 13 12.0158 13H13.9849C14.1531 13 14.2733 13.1628 14.2238 13.3235L13.2393 16.5232Z" fill="#141416"/>
</svg>
