<svg width="32" height="32" viewBox="0 0 32 32" fill="none" xmlns="http://www.w3.org/2000/svg">
<path fill-rule="evenodd" clip-rule="evenodd" d="M15.9993 26.6667C21.8904 26.6667 26.666 21.8911 26.666 16C26.666 10.109 21.8904 5.33335 15.9993 5.33335C10.1083 5.33335 5.33268 10.109 5.33268 16C5.33268 21.8911 10.1083 26.6667 15.9993 26.6667ZM15.9993 29.3334C23.3631 29.3334 29.3327 23.3638 29.3327 16C29.3327 8.63622 23.3631 2.66669 15.9993 2.66669C8.63555 2.66669 2.66602 8.63622 2.66602 16C2.66602 23.3638 8.63555 29.3334 15.9993 29.3334Z" fill="#EF466F"/>
<path fill-rule="evenodd" clip-rule="evenodd" d="M15.9993 9.33331C15.263 9.33331 14.666 9.93027 14.666 10.6666C14.666 11.403 15.263 12 15.9993 12C16.7357 12 17.3327 11.403 17.3327 10.6666C17.3327 9.93027 16.7357 9.33331 15.9993 9.33331ZM15.9993 14.6666C15.263 14.6666 14.666 15.2636 14.666 16V21.3333C14.666 22.0697 15.263 22.6666 15.9993 22.6666C16.7357 22.6666 17.3327 22.0697 17.3327 21.3333V16C17.3327 15.2636 16.7357 14.6666 15.9993 14.6666Z" fill="#EF466F"/>
</svg>
