<svg width="21" height="20" viewBox="0 0 21 20" fill="none" xmlns="http://www.w3.org/2000/svg">
<path fill-rule="evenodd" clip-rule="evenodd" d="M10.3999 2C8.44767 2 6.64807 2.161 5.20361 2.35177C3.90363 2.52346 2.92337 3.50372 2.75168 4.80371C2.56091 6.24816 2.3999 8.04777 2.3999 10C2.3999 11.9522 2.56091 13.7518 2.75168 15.1963C2.92337 16.4963 3.90363 17.4765 5.20361 17.6482C6.64806 17.839 8.44767 18 10.3999 18C12.3521 18 14.1517 17.839 15.5962 17.6482C16.8962 17.4765 17.8764 16.4963 18.0481 15.1963C18.2389 13.7518 18.3999 11.9522 18.3999 10C18.3999 8.04777 18.2389 6.24816 18.0481 4.80371C17.8764 3.50372 16.8962 2.52346 15.5962 2.35177C14.1517 2.16101 12.3521 2 10.3999 2ZM4.94174 0.368993C2.74495 0.659124 1.05903 2.34504 0.768895 4.54184C0.569436 6.05208 0.399902 7.94127 0.399902 10C0.399902 12.0587 0.569436 13.9479 0.768895 15.4582C1.05903 17.655 2.74495 19.3409 4.94174 19.631C6.45198 19.8305 8.34118 20 10.3999 20C12.4586 20 14.3478 19.8305 15.8581 19.631C18.0549 19.3409 19.7408 17.655 20.0309 15.4582C20.2304 13.9479 20.3999 12.0587 20.3999 10C20.3999 7.94127 20.2304 6.05208 20.0309 4.54184C19.7408 2.34504 18.0549 0.659124 15.8581 0.368993C14.3478 0.169534 12.4586 0 10.3999 0C8.34118 0 6.45198 0.169534 4.94174 0.368993Z" fill="#B1B5C4"/>
<path fill-rule="evenodd" clip-rule="evenodd" d="M10.3999 15C10.9522 15 11.3999 14.5523 11.3999 14V11H14.3999C14.9522 11 15.3999 10.5523 15.3999 10C15.3999 9.44771 14.9522 9 14.3999 9H11.3999V6C11.3999 5.44772 10.9522 5 10.3999 5C9.84762 5 9.3999 5.44772 9.3999 6V9H6.3999C5.84762 9 5.3999 9.44771 5.3999 10C5.3999 10.5523 5.84762 11 6.3999 11H9.3999V14C9.3999 14.5523 9.84762 15 10.3999 15Z" fill="#B1B5C4"/>
</svg>
